<svg width="33" height="33" viewBox="0 0 33 33" fill="none" xmlns="http://www.w3.org/2000/svg">
<rect x="0.26297" y="0.262939" width="32" height="32" rx="16" fill="#F4F4F5"/>
<path d="M16.263 21.4034C17.1255 21.4034 17.8442 22.0129 18.5629 22.0129C20.2879 22.0129 22.0129 17.4129 22.0129 14.9865C21.9933 14.2417 21.6801 13.5349 21.1416 13.02C20.603 12.5052 19.8828 12.2241 19.1379 12.238C17.8615 12.238 16.838 13.066 16.263 13.388C15.688 13.066 14.6645 12.238 13.388 12.238C12.6427 12.2226 11.9216 12.5032 11.3828 13.0183C10.8439 13.5335 10.5312 14.2412 10.5131 14.9865C10.5131 17.4129 12.2381 22.0129 13.963 22.0129C14.6818 22.0129 15.4005 21.4034 16.263 21.4034Z" stroke="#71717A" stroke-width="2" stroke-linecap="round" stroke-linejoin="round"/>
<path d="M15.113 9.3631C15.688 9.76559 16.263 10.9731 16.263 13.388" stroke="#71717A" stroke-width="2" stroke-linecap="round" stroke-linejoin="round"/>
</svg>
